<svg width="194" height="31" viewBox="0 0 194 31" fill="none" xmlns="http://www.w3.org/2000/svg">
<g clip-path="url(#clip0_2_2095)">
<path d="M126.578 0.793151H110.847C110.715 0.793151 110.582 0.925342 110.582 1.05753C110.186 8.19589 108.864 15.863 106.881 22.076V22.3404C107.013 22.4726 107.013 22.4726 107.145 22.4726H112.565C112.698 22.4726 112.83 22.3404 112.83 22.3404C114.284 17.5815 115.606 11.2363 116.002 5.94863H121.158V22.3404C121.158 22.4726 121.29 22.6048 121.422 22.6048H126.578C126.71 22.6048 126.842 22.4726 126.842 22.3404V1.18973C126.842 0.925342 126.71 0.793151 126.578 0.793151ZM193.335 0.793151H188.179C188.047 0.793151 187.915 0.925342 187.915 1.05753V17.3171C186.725 17.7137 185.667 17.7137 184.345 17.7137C180.908 17.7137 180.115 16.6562 180.115 12.1616V1.18973C180.115 1.05753 179.983 0.925342 179.851 0.925342H174.695C174.563 0.925342 174.431 1.05753 174.431 1.18973V12.9548C174.431 20.3575 176.943 23.1336 183.288 23.1336C186.857 23.1336 190.955 22.2082 193.335 21.2829C193.467 21.2829 193.467 21.1507 193.467 21.0185V1.18973C193.599 0.925342 193.467 0.793151 193.335 0.793151ZM84.1441 0.925342H78.8564C78.7242 0.925342 78.592 1.05753 78.592 1.05753C77.7989 4.23014 76.0804 9.65 73.8331 15.3342L68.5455 0.925342C68.5455 0.793151 68.4133 0.793151 68.2811 0.793151H62.9934C62.8612 0.793151 62.8612 0.925342 62.729 0.925342C62.5968 1.05753 62.5968 1.05753 62.729 1.18973L70.6605 22.737C69.8674 24.4555 69.0742 25.7774 68.4133 27.0993C67.8845 28.0247 67.3557 29.0822 66.827 30.0075C66.6948 30.1397 66.827 30.1397 66.827 30.2719C66.9592 30.4041 66.9592 30.4041 67.0914 30.4041H72.7756C72.9078 30.4041 72.9078 30.2719 73.04 30.2719C73.9653 28.4212 75.2872 25.7774 76.3448 23.1336C79.6496 15.3342 82.4256 7.93151 84.4085 1.18973C84.4085 1.05753 84.4085 1.05753 84.2763 0.925342H84.1441ZM102.915 17.4493C102.915 17.3171 102.783 17.3171 102.783 17.3171H102.519C101.329 17.7137 98.9496 18.2425 97.2311 18.2425C93.6619 18.2425 91.9434 17.3171 91.9434 11.7651C91.9434 7.40274 92.4722 5.28767 97.2311 5.28767C98.553 5.28767 99.8749 5.41986 101.461 5.94863C101.593 5.94863 101.726 5.94863 101.858 5.81644C102.519 4.62671 103.18 3.30479 103.973 1.5863V1.32192C103.973 1.18973 103.708 1.05753 103.708 1.05753C101.593 0.396575 99.0818 0 96.8345 0C89.2996 0 85.9948 3.43699 85.9948 11.5007C85.9948 19.5644 89.2996 23.1336 96.8345 23.1336C98.6852 23.1336 102.387 22.737 104.237 21.9438C104.369 21.8116 104.369 21.8116 104.369 21.5473L102.915 17.4493ZM151.958 0.925342H146.671C146.539 0.925342 146.406 1.05753 146.406 1.05753C145.613 4.23014 143.895 9.65 141.648 15.3342L136.36 0.925342C136.36 0.793151 136.228 0.793151 136.095 0.793151H130.808C130.676 0.793151 130.676 0.925342 130.543 0.925342C130.411 1.05753 130.411 1.05753 130.543 1.18973L138.475 22.737C137.682 24.4555 136.889 25.6452 136.228 27.0993C135.699 28.0247 135.17 29.0822 134.641 30.0075C134.509 30.1397 134.641 30.1397 134.641 30.2719C134.774 30.4041 134.774 30.4041 134.906 30.4041H140.59C140.722 30.4041 140.722 30.2719 140.854 30.2719C141.78 28.4212 143.102 25.7774 144.159 23.1336C147.464 15.3342 150.24 7.93151 152.091 1.18973C152.091 1.05753 152.091 1.05753 151.958 0.925342ZM171.258 0.793151H156.056C155.924 0.793151 155.792 0.925342 155.792 1.05753V22.076C155.792 22.2082 155.924 22.3404 156.056 22.3404H161.212C161.344 22.3404 161.476 22.2082 161.476 22.076V5.81644H169.408C169.54 5.81644 169.672 5.68425 169.672 5.68425C170.333 4.23014 170.862 2.77603 171.523 1.18973V0.925342C171.391 0.925342 171.258 0.793151 171.258 0.793151Z" fill="#EE3F58"/>
<path d="M28.0948 18.2425C24.6578 18.2425 23.6002 17.3171 23.6002 11.6329C23.6002 5.55207 24.79 5.0233 28.0948 5.0233C31.3996 5.0233 32.7215 5.55207 32.7215 11.6329C32.5893 17.4493 31.5318 18.2425 28.0948 18.2425ZM28.0948 0.132202C20.692 0.132202 17.7838 3.3048 17.7838 11.5007C17.7838 19.8288 20.692 23.0014 28.0948 23.0014C35.4975 23.0014 38.5379 19.8288 38.5379 11.5007C38.5379 3.437 35.4975 0.132202 28.0948 0.132202ZM59.0276 17.4493C59.0276 17.3171 58.8955 17.3171 58.8955 17.3171H58.6311C57.4413 17.7137 55.0619 18.2425 53.3434 18.2425C49.7742 18.2425 48.0557 17.3171 48.0557 11.7651C48.0557 7.40275 48.5845 5.28768 53.3434 5.28768C54.6653 5.28768 55.9872 5.41987 57.5735 5.94864C57.7057 5.94864 57.8379 5.94864 57.9701 5.81645C58.6311 4.62672 59.292 3.30481 60.0852 1.58631V1.32193C60.0852 1.18974 59.953 1.18974 59.953 1.18974C57.9701 0.528777 55.3263 0.264394 53.2112 0.264394C45.6763 0.264394 42.3715 3.70138 42.3715 11.7651C42.3715 19.8288 45.6763 23.398 53.2112 23.398C55.0619 23.398 58.7633 23.0014 60.6139 22.2082C60.7461 22.076 60.7461 22.076 60.7461 21.8117L59.0276 17.4493ZM16.0653 0.793161H0.863261C0.731069 0.793161 0.598877 0.925353 0.598877 1.18974V22.2082C0.598877 22.3404 0.731069 22.4726 0.863261 22.4726H6.01874C6.15093 22.4726 6.28312 22.3404 6.28312 22.2082V5.81645H14.2146C14.3468 5.81645 14.3468 5.68426 14.479 5.68426C15.14 4.23015 15.8009 2.64385 16.3297 1.18974V0.925353C16.3297 0.925353 16.1975 0.793161 16.0653 0.793161Z" fill="black"/>
</g>
<defs>
<clipPath id="clip0_2_2095">
<rect width="193" height="30.4041" fill="white" transform="translate(0.598877)"/>
</clipPath>
</defs>
</svg>
