<svg width="60" height="64" viewBox="0 0 60 64" fill="none" xmlns="http://www.w3.org/2000/svg">
<g clip-path="url(#clip0_48_15139)">
<path fill-rule="evenodd" clip-rule="evenodd" d="M53.7275 11.6786C56.3294 13.6476 58.7943 17.9252 59.1366 21.1845C59.1366 21.1845 59.6844 26.1411 59.6844 31.9125C59.6844 37.7518 59.1366 42.6405 59.1366 42.6405C58.7943 45.8996 56.3979 50.1772 53.7275 52.1464C53.7275 52.1464 49.7563 55.066 44.8265 57.9856C39.8282 60.9053 35.3778 62.8744 35.3778 62.8744C33.9399 63.5534 31.9542 63.8929 29.9687 63.8929C28.0516 63.8929 26.0659 63.5534 24.5596 62.8744C24.5596 62.8744 20.0406 60.9053 15.1107 57.9856C10.181 55.066 6.20977 52.1464 6.20977 52.1464C3.60794 50.1772 1.14303 45.8996 0.800686 42.6405C0.800686 42.6405 0.25293 37.6839 0.25293 31.9125C0.25293 26.0731 0.800686 21.1845 0.800686 21.1845C1.14303 17.9252 3.53947 13.6476 6.20977 11.6786C6.20977 11.6786 10.181 8.82685 15.1107 5.9072C20.109 2.98755 24.5596 1.01848 24.5596 1.01848C25.9975 0.339494 27.983 0 29.9687 0C31.8858 0 33.8715 0.339494 35.3778 1.01848C35.3778 1.01848 39.8968 2.98755 44.8265 5.9072C49.7563 8.75895 53.7275 11.6786 53.7275 11.6786ZM52.0844 49.9056C54.0699 48.4119 56.124 44.8811 56.3979 42.301C56.3979 42.301 56.9456 37.4801 56.8772 31.8446C56.8772 26.8306 56.4884 22.4774 56.4112 21.6115C56.4026 21.5159 56.3979 21.4627 56.3979 21.456C56.1925 18.9437 54.1383 15.3451 52.0844 13.8514C52.0844 13.8514 48.1816 10.9996 43.4572 8.21576C38.6643 5.43191 34.3507 3.46284 34.2823 3.46284C33.1868 2.98755 31.6119 2.71595 29.9687 2.71595C28.3254 2.71595 26.7506 2.98755 25.5867 3.53074C25.5182 3.53074 21.1361 5.49981 16.4117 8.28366C12.7786 10.4245 9.6719 12.6054 8.39937 13.4987C8.01713 13.7671 7.80039 13.9192 7.78457 13.9192C5.79896 15.413 3.74487 18.9438 3.471 21.524C3.471 21.524 2.9917 26.3447 2.9917 31.9125C2.9917 37.4801 3.471 42.301 3.53947 42.301C3.81334 44.8132 5.79896 48.4119 7.85304 49.9056C7.85304 49.9056 11.7558 52.7574 16.4802 55.5412C21.2731 58.3251 25.5867 60.2943 25.6551 60.2943C26.7506 60.7695 28.3254 61.0411 29.9687 61.0411C31.6119 61.0411 33.1868 60.7695 34.2823 60.2943C34.3507 60.2943 38.7327 58.3251 43.4572 55.5412C47.0902 53.4005 50.197 51.2195 51.4695 50.3261C51.8518 50.0579 52.0685 49.9056 52.0844 49.9056Z" fill="#60BC46"/>
<path d="M34.684 12.5H18.9911C16.4431 12.5 14.3701 14.5502 14.3701 17.0702V46.9297C14.3701 49.4497 16.4431 51.5 18.9911 51.5H41.0096C43.5576 51.5 45.6306 49.4497 45.6306 46.9297V23.3816L34.684 12.5ZM35.5412 17.6721L40.3848 22.487H37.0815C36.2322 22.487 35.5412 21.8035 35.5412 20.9635V17.6721ZM42.5499 46.9297C42.5498 47.7697 41.8588 48.4531 41.0095 48.4531H18.9911C18.1418 48.4531 17.4508 47.7697 17.4508 46.9297V17.0702C17.4508 16.2302 18.1418 15.5469 18.9911 15.5469H32.4606V20.9635C32.4606 23.4836 34.5336 25.5339 37.0818 25.5339H42.5499V46.9297Z" fill="#60BC46"/>
<path fill-rule="evenodd" clip-rule="evenodd" d="M22.7127 32.7325C22.0427 32.7325 21.4995 33.2713 21.4995 33.9357V42.6805C21.4995 43.9423 22.5336 44.9677 23.8059 44.9677H36.1944C37.4666 44.9677 38.5006 43.9422 38.5006 42.6805V33.9357C38.5006 33.2713 37.9576 32.7325 37.2873 32.7325C36.6173 32.7325 36.0741 33.2713 36.0741 33.9357V42.5614H23.926V33.9357C23.926 33.2713 23.383 32.7325 22.7127 32.7325Z" fill="#60BC46"/>
<path fill-rule="evenodd" clip-rule="evenodd" d="M27.6478 27.3399C28.9452 26.0534 31.0548 26.0534 32.3522 27.3399V27.34L36.1185 31.9588L36.1194 31.9596L32.3522 27.34L39.6026 34.5299C40.0763 34.9998 40.0765 35.7614 39.6028 36.2313L39.2018 35.7396L39.2017 35.7398L39.6025 36.2314C39.3658 36.4663 39.0542 36.5838 38.7447 36.5838C38.4352 36.5838 38.1237 36.4663 37.8868 36.2314L30.6364 29.0414C30.2859 28.6937 29.7141 28.6937 29.3636 29.0414L22.1131 36.2314C21.6393 36.7013 20.8712 36.7013 20.3975 36.2315C19.9235 35.7616 19.9235 34.9999 20.3973 34.53L20.3975 34.5299L27.6478 27.34L28.0935 27.7819L27.6478 27.3399Z" fill="#60BC46"/>
<path fill-rule="evenodd" clip-rule="evenodd" d="M28.9071 36.2017C27.5545 36.2017 26.4551 37.2919 26.4551 38.6333V43.7642C26.4551 44.4287 26.9982 44.9673 27.6683 44.9673H32.3322C33.0023 44.9673 33.5454 44.4287 33.5454 43.7642V38.6333C33.5454 37.2919 32.446 36.2017 31.0934 36.2017H28.9071ZM28.8815 38.6333C28.8815 38.6292 28.8823 38.6264 28.8832 38.6243C28.8843 38.6217 28.8863 38.6185 28.8892 38.6155C28.8923 38.6127 28.8953 38.6107 28.8979 38.6097C28.9002 38.6087 28.9029 38.6079 28.9071 38.6079H31.0934C31.0975 38.6079 31.1003 38.6087 31.1026 38.6097C31.1052 38.6107 31.1082 38.6127 31.1113 38.6155C31.1142 38.6185 31.1162 38.6217 31.1173 38.6243C31.1182 38.6264 31.1189 38.6292 31.1189 38.6333V42.561H28.8815V38.6333Z" fill="#60BC46"/>
</g>
<defs>
<clipPath id="clip0_48_15139">
<rect width="60" height="64" fill="white"/>
</clipPath>
</defs>
</svg>
